<svg version="1.1" id="Cho_Ku_Rei__x28_CR_x29_" xmlns="http://www.w3.org/2000/svg" xmlns:xlink="http://www.w3.org/1999/xlink" x="0px" y="0px" width="500px" height="500px" viewBox="0 0 500 500" enable-background="new 0 0 500 500" xml:space="preserve">
<g>
	<path id="Spirale" fill="#231F20" d="M293.23,490.088c-3.951,0.261-7.994,0.35-12.121,0.255l-6.735-14.418   c3.886,0.089,7.769,0,11.64-0.255 M428.991,428.524c-33.71,35.188-80.942,58.695-135.761,61.563l-9.13-14.441   c53.11-2.777,99.012-25.696,131.892-60.021L428.991,428.524z M483.909,296.439c-0.893,49.85-21.184,96.872-54.918,132.085   l-12.999-12.898c32.854-34.297,52.614-79.877,53.478-128.015L483.909,296.439z M483.671,282.922   c0.237,4.586,0.316,9.096,0.237,13.517l-14.439-8.828c0.076-4.322,0.007-8.603-0.213-12.833L483.671,282.922z M483.608,281.575   c0.05,0.837-0.02-0.228,0.063,1.347l-14.415-8.144c-0.037-0.683,0.014,0.404-0.089-1.321L483.608,281.575z M409.925,141.916   c42.563,34.445,70.337,83.443,73.683,139.659l-14.44-8.118c-2.993-50.309-26.736-93.257-63.011-122.614L409.925,141.916z    M409.875,141.865l0.05,0.051l-1.884,4.464L409.875,141.865z M253.155,92.455c59.727-3.125,115.105,15.732,156.721,49.411   l-3.667,9.029c-37.224-30.124-88.011-46.924-143.923-44L253.155,92.455z M251.389,92.565c1.679-0.099,1.204-0.082,1.766-0.11   l9.131,14.44c-1.732,0.091-1.232,0.056-1.742,0.086L251.389,92.565z M126.925,147.505c30.992-31.212,74.929-51.992,124.464-54.94   l9.154,14.416c-47.879,2.85-90.487,23.077-120.669,53.474L126.925,147.505z M79.71,265.853   c-2.079-45.104,16.117-87.028,47.214-118.348l12.949,12.949c-30.076,30.29-47.685,70.582-45.698,113.694L79.71,265.853z    M79.827,267.916c-0.065-1.094-0.104-1.782-0.117-2.063l14.466,8.295c0.048,1.038,0.079,1.667,0.091,1.886L79.827,267.916z    M141.762,384.2c-35.804-29.154-59.188-70.14-61.935-116.284l14.44,8.119c2.398,40.29,21.744,75.203,51.263,99.24L141.762,384.2z    M272.567,426.618c-49.657,2.286-95.928-14.018-130.805-42.418l3.768-8.926c30.445,24.788,72.093,38.964,117.956,36.852   L272.567,426.618z M275.267,426.438c-2.677,0.158-1.793,0.137-2.7,0.18l-9.081-14.492c2.684-0.124,1.729-0.049,2.627-0.104   L275.267,426.438z M375.216,382.34c-24.874,25.052-60.156,41.73-99.949,44.099l-9.154-14.416   c38.138-2.271,72.09-18.396,96.155-42.631L375.216,382.34z M413.143,287.196c1.671,36.283-12.944,69.984-37.927,95.144   l-12.948-12.948c23.959-24.129,37.988-56.2,36.408-90.49L413.143,287.196z M413.047,285.528c0.056,0.955,0.089,1.524,0.096,1.667   l-14.467-8.294c-0.043-0.911-0.066-1.396-0.072-1.491L413.047,285.528z M362.43,190.796c29.272,23.836,48.384,57.232,50.617,94.732   l-14.443-8.118c-1.883-31.646-16.957-58.97-39.942-77.688L362.43,190.796z M256.503,156.307   c40.104-1.849,77.583,11.409,105.927,34.489l-3.769,8.927c-23.914-19.471-56.771-30.599-93.079-28.925L256.503,156.307z    M254.334,156.457c2.538-0.151,1.158-0.104,2.169-0.15l9.079,14.491c-2.429,0.112-0.98,0.008-2.095,0.074L254.334,156.457z    M178.897,189.715c18.756-18.891,45.384-31.47,75.438-33.258l9.153,14.415c-28.396,1.691-53.694,13.716-71.642,31.792   L178.897,189.715z M150.265,261.654c-1.267-27.461,9.769-52.942,28.632-71.939l12.949,12.948   c-17.841,17.968-28.289,41.816-27.116,67.286L150.265,261.654z M150.34,262.928c-0.048-0.808-0.075-1.267-0.075-1.274l14.465,8.294   c0.036,0.783,0.049,1.079,0.05,1.097L150.34,262.928z M189.635,336.106c-22.739-18.517-37.578-44.323-39.295-73.178l14.44,8.118   c1.37,23.002,12.169,42.736,28.623,56.132L189.635,336.106z M270.687,362.669c-30.554,1.407-59.24-8.801-81.052-26.563l3.768-8.929   c17.38,14.153,41.445,22.231,68.204,20.998L270.687,362.669z M272.322,362.545c-2.25,0.136-0.426,0.068-1.635,0.124l-9.08-14.493   c2.273-0.102,0.378,0.025,1.562-0.046L272.322,362.545z M287.142,360.947c-4.956,0.793-9.939,1.309-14.82,1.598l-9.153-14.415   c4.567-0.27,9.28-0.763,14.034-1.522L287.142,360.947z M333.488,340.948c-12.417,11.331-29.423,17.286-46.346,19.999l-9.939-14.34   c15.884-2.546,31.842-8.134,43.489-18.758L333.488,340.948z M352.527,287.842c1.468,24.657-6.457,41.629-19.039,53.106   l-12.796-13.099c11.479-10.476,18.72-25.871,17.396-48.125L352.527,287.842z M351.283,276.574   c0.615,3.846,1.026,7.602,1.244,11.268l-14.439-8.117c-0.188-3.163-0.565-6.544-1.146-10.155L351.283,276.574z M343.099,251.174   c3.804,7.338,6.64,15.764,8.184,25.4l-14.341-7.004c-1.248-7.805-3.424-14.391-6.285-19.915L343.099,251.174z M299.509,213.743   c17.168,5.989,33.306,17.594,43.59,37.431l-12.442-1.519c-5.974-11.521-15.965-18.477-26.796-22.256L299.509,213.743z    M255.922,209.927c12.563-2.013,28.487-1.455,43.587,3.816l4.352,13.656c-12.895-4.5-26.834-4.922-37.998-3.132L255.922,209.927z    M239.316,214.972c4.232-2.195,9.98-3.983,16.606-5.045l9.94,14.34c-5.978,0.957-11.103,2.539-14.812,4.462L239.316,214.972z    M211.996,237.356c6.387-10.361,16.786-16.923,27.32-22.385l11.735,13.757c-9.878,5.122-19.605,11.236-25.45,20.717   L211.996,237.356z M209.109,283.775c-6.021-21.19-3.694-35.745,2.887-46.419l13.605,12.089c-5.653,9.167-7.666,21.625-2.533,39.69   L209.109,283.775z M269.483,319.323c-26.869-0.996-54.061-13.331-60.374-35.548l13.96,5.36   c2.716,9.562,20.124,15.082,38.094,15.747L269.483,319.323z M298.281,315.695c-8.628,2.824-18.712,4.003-28.798,3.628l-8.32-14.44   c9.115,0.338,18.277-0.743,26.168-3.323L298.281,315.695z M318.797,301.853c-4.467,6.41-11.791,10.988-20.517,13.842l-10.95-14.135   c7.789-2.55,14.25-6.527,18.062-11.997L318.797,301.853z M314.582,259.599c11.23,18.508,11.044,32.457,4.216,42.253l-13.405-12.29   c5.042-7.235,5.404-17.161-2.317-29.888L314.582,259.599z"/>
	<g id="Linee">
		<polygon fill="#231F20" points="286.417,490.231 270.417,490.231 270.417,29.198 14.438,29.198 14.438,13.198 286.417,13.198     286.417,490.231   "/>
	</g>
</g>
</svg>